<svg xmlns="http://www.w3.org/2000/svg" width="200" height="40" viewBox="0 0 250 49"><defs><style>.cls-1{fill:#f7931a;}</style></defs><path class="cls-1" d="M217.47,24.61a1.92,1.92,0,0,0-1.59.85,3.77,3.77,0,0,0-.65,2.39h4.47a4.06,4.06,0,0,0-.69-2.43A1.91,1.91,0,0,0,217.47,24.61Z" transform="translate(0 -0.3)"/><path class="cls-1" d="M229.94,24.61a2.09,2.09,0,0,0-1.75,1,5.37,5.37,0,0,0-.73,3.09,9.11,9.11,0,0,0,.32,2.78,2.92,2.92,0,0,0,.9,1.38,2.11,2.11,0,0,0,1.33.46,2,2,0,0,0,1.7-1.06,5.69,5.69,0,0,0,.73-3.21,6.29,6.29,0,0,0-.71-3.42A2.09,2.09,0,0,0,229.94,24.61Z" transform="translate(0 -0.3)"/><path class="cls-1" d="M197.86,24.7a2.17,2.17,0,0,0-1.81,1,5.35,5.35,0,0,0-.72,3.07,6.2,6.2,0,0,0,.75,3.44,2.2,2.2,0,0,0,1.83,1.11,2,2,0,0,0,1.72-1,6,6,0,0,0,.7-3.33,5.8,5.8,0,0,0-.72-3.24A2.09,2.09,0,0,0,197.86,24.7Z" transform="translate(0 -0.3)"/><path class="cls-1" d="M243.4.3H6.6A6.66,6.66,0,0,0,0,6.9V42.7a6.66,6.66,0,0,0,6.6,6.6H243.4a6.59,6.59,0,0,0,6.6-6.6V6.9A6.59,6.59,0,0,0,243.4.3ZM107.83,14.76a3.15,3.15,0,0,1,.68-1,3.34,3.34,0,0,1,1-.64,3,3,0,0,1,1.19-.24,2.78,2.78,0,0,1,1.69.55,2,2,0,0,1,.75,1.7,2.8,2.8,0,0,1-.26,1.19,3.12,3.12,0,0,1-.67,1,3.26,3.26,0,0,1-1,.64,3,3,0,0,1-1.19.24,2.75,2.75,0,0,1-1.68-.55,2,2,0,0,1-.76-1.7A2.8,2.8,0,0,1,107.83,14.76Zm-49.57,0a3.53,3.53,0,0,1,.68-1,3.26,3.26,0,0,1,1-.64,3,3,0,0,1,1.19-.24,2.75,2.75,0,0,1,1.68.55,2,2,0,0,1,.76,1.7,2.8,2.8,0,0,1-.26,1.19,3.33,3.33,0,0,1-.68,1,3.21,3.21,0,0,1-1,.64,3,3,0,0,1-1.19.24,2.78,2.78,0,0,1-1.69-.55A2,2,0,0,1,58,16,2.79,2.79,0,0,1,58.26,14.76ZM36.42,27.37A11.89,11.89,0,1,1,27.76,13a11.89,11.89,0,0,1,8.66,14.41Zm16.26,2.82a10.45,10.45,0,0,1-2.09,3.23,9.88,9.88,0,0,1-3.14,2.16,9.56,9.56,0,0,1-3.91.8l-.95,0a11.54,11.54,0,0,1-1.54-.13,18.33,18.33,0,0,1-1.86-.36,9.68,9.68,0,0,1-1.85-.66l5.21-21.88,4.66-.73-1.86,7.77a7.15,7.15,0,0,1,1.2-.42,5.33,5.33,0,0,1,1.3-.15h0a5.64,5.64,0,0,1,2.49.52,4.89,4.89,0,0,1,1.75,1.38,5.89,5.89,0,0,1,1,2,9.27,9.27,0,0,1,.33,2.53A10.14,10.14,0,0,1,52.68,30.19ZM58.28,36H53.83l3.76-15.83h4.48Zm9-4.29a1.34,1.34,0,0,0,.65.68,3,3,0,0,0,1.34.24,7.23,7.23,0,0,0,1.4-.14A10.21,10.21,0,0,0,72,32.08l.34,3.43a16.24,16.24,0,0,1-2,.57,11.39,11.39,0,0,1-2.5.24,6.92,6.92,0,0,1-3.22-.62A3.55,3.55,0,0,1,63,34a5.34,5.34,0,0,1-.43-2.45A15.74,15.74,0,0,1,63,28.65l3-12.46,4.66-.73L69.5,20.13h5l-.9,3.67h-5L67.3,29.34a6.4,6.4,0,0,0-.21,1.29A2.41,2.41,0,0,0,67.24,31.67Zm12.35,0a2.8,2.8,0,0,0,2.44,1,7.81,7.81,0,0,0,1.69-.18A8.15,8.15,0,0,0,85.16,32l.34,3.58a18,18,0,0,1-1.87.59,10.78,10.78,0,0,1-2.44.25A8.21,8.21,0,0,1,78,35.84a6.11,6.11,0,0,1-2.14-1.46,5.51,5.51,0,0,1-1.21-2.15,8.59,8.59,0,0,1-.38-2.59A11.12,11.12,0,0,1,75,25.79a9.41,9.41,0,0,1,1.9-3.17,8.86,8.86,0,0,1,3-2.13,9.57,9.57,0,0,1,3.93-.78A10.47,10.47,0,0,1,86.2,20a10.27,10.27,0,0,1,1.94.68l-1.53,3.49c-.4-.16-.82-.3-1.25-.43a5.19,5.19,0,0,0-1.58-.2A4.42,4.42,0,0,0,80.24,25a6.18,6.18,0,0,0-1.31,4.13A4.25,4.25,0,0,0,79.59,31.64Zm22.83-1.79a10.46,10.46,0,0,1-1.68,3.25A8.89,8.89,0,0,1,98,35.46a7.9,7.9,0,0,1-3.86.92,7.26,7.26,0,0,1-2.77-.48,5,5,0,0,1-1.94-1.36,5.71,5.71,0,0,1-1.16-2.06,8.11,8.11,0,0,1-.39-2.63,11.64,11.64,0,0,1,.58-3.61A10.26,10.26,0,0,1,90.14,23a9.31,9.31,0,0,1,2.8-2.37,7.7,7.7,0,0,1,3.79-.91,7.35,7.35,0,0,1,2.76.48,5.09,5.09,0,0,1,2,1.35,6,6,0,0,1,1.16,2.06,8.5,8.5,0,0,1,.39,2.64A12,12,0,0,1,102.42,29.85Zm1,6.11,3.76-15.83h4.49L107.85,36Zm23.17-8.55-2,8.55H120l2-8.37c.12-.52.22-1,.29-1.52a3.67,3.67,0,0,0,0-1.29,1.59,1.59,0,0,0-.56-.91,2.13,2.13,0,0,0-1.34-.34,9,9,0,0,0-1.77.18L115.69,36H111.2l3.65-15.11L116,20.5a13.4,13.4,0,0,1,1.39-.35,14.54,14.54,0,0,1,1.71-.28,20,20,0,0,1,2.15-.1q3.52,0,4.87,2T126.56,27.41Zm24.6,8.49-1.37-4.3h-6.23l-1.28,4.3h-3.34l6.06-19h3.33l6.23,19Zm9.8.32a4.51,4.51,0,0,1-4.09-2.1,9.21,9.21,0,0,1-1.33-5,8.38,8.38,0,0,1,1.5-5.39,5.31,5.31,0,0,1,7.2-.8A6,6,0,0,1,166,26.2l-2.93.65c-.22-1.44-.9-2.16-2-2.16a2.09,2.09,0,0,0-1.78.93,5.59,5.59,0,0,0-.68,3.16,6.56,6.56,0,0,0,.68,3.47,2.08,2.08,0,0,0,1.8,1,1.81,1.81,0,0,0,1.39-.58,3.93,3.93,0,0,0,.78-2l2.94.6C165.57,34.57,163.83,36.22,161,36.22Zm12.09,0a4.51,4.51,0,0,1-4.09-2.1,9.21,9.21,0,0,1-1.33-5,8.32,8.32,0,0,1,1.51-5.39,5.3,5.3,0,0,1,7.19-.8,6,6,0,0,1,1.8,3.32l-2.94.65c-.22-1.44-.9-2.16-2.05-2.16a2.11,2.11,0,0,0-1.78.93,5.59,5.59,0,0,0-.68,3.16,6.56,6.56,0,0,0,.68,3.47,2.08,2.08,0,0,0,1.8,1,1.81,1.81,0,0,0,1.39-.58,3.93,3.93,0,0,0,.78-2l2.94.6C177.67,34.57,175.93,36.22,173.05,36.22Zm17-6.14h-7.47a4.07,4.07,0,0,0,.73,2.53,2.11,2.11,0,0,0,1.71.9c1,0,1.6-.66,1.92-2l3,.61A5.8,5.8,0,0,1,188,35.22a4.75,4.75,0,0,1-3.06,1,4.68,4.68,0,0,1-3.86-1.67,8.33,8.33,0,0,1-1.61-5.45,8.71,8.71,0,0,1,1.62-5.52,4.29,4.29,0,0,1,3.55-1.75,4.51,4.51,0,0,1,3.79,1.79,9.78,9.78,0,0,1,1.58,6Zm12,4.26a4.07,4.07,0,0,1-3.33,1.88,3.29,3.29,0,0,1-1.66-.43,5.6,5.6,0,0,1-1.63-1.57v6.91h-3v-19h2.77v2a4.63,4.63,0,0,1,1.5-1.71,3.57,3.57,0,0,1,2-.63A4.08,4.08,0,0,1,202,23.67a8.52,8.52,0,0,1,1.39,5.23A9,9,0,0,1,202,34.34Zm6.82,1.88a2.89,2.89,0,0,1-1.83-.54,2.75,2.75,0,0,1-.92-1.57,16.25,16.25,0,0,1-.18-3.06v-6h-1.37v-2.9h1.37V19.42l3-2.12v4.85h2v2.9h-2V30.6a12.3,12.3,0,0,0,.09,2.09.71.71,0,0,0,.74.52,3.23,3.23,0,0,0,1.19-.35l.26,2.82A5,5,0,0,1,208.81,36.22Zm13.84-6.14h-7.47a4.14,4.14,0,0,0,.73,2.53,2.11,2.11,0,0,0,1.71.9c1,0,1.6-.66,1.92-2l3,.61a5.88,5.88,0,0,1-1.86,3.07,4.75,4.75,0,0,1-3.06,1,4.68,4.68,0,0,1-3.86-1.67,8.33,8.33,0,0,1-1.61-5.45,8.71,8.71,0,0,1,1.62-5.52,4.31,4.31,0,0,1,3.55-1.75,4.51,4.51,0,0,1,3.79,1.79,9.78,9.78,0,0,1,1.58,6Zm12.76,5.82h-2.77v-2A5,5,0,0,1,231,35.64a3.55,3.55,0,0,1-1.91.58,4.06,4.06,0,0,1-3.3-1.88,9,9,0,0,1-1.4-5.39,8.74,8.74,0,0,1,1.37-5.33,4.12,4.12,0,0,1,3.37-1.79,3.46,3.46,0,0,1,1.77.48,5,5,0,0,1,1.5,1.43V16.92h3Z" transform="translate(0 -0.3)"/><path class="cls-1" d="M184.86,24.61a1.92,1.92,0,0,0-1.59.85,3.77,3.77,0,0,0-.65,2.39h4.46a4,4,0,0,0-.68-2.43A1.93,1.93,0,0,0,184.86,24.61Z" transform="translate(0 -0.3)"/><polygon class="cls-1" points="144.53 28.09 148.78 28.09 146.63 21.05 144.53 28.09"/><path class="cls-1" d="M96.31,23.5a2.8,2.8,0,0,0-1.74.57,4.83,4.83,0,0,0-1.27,1.45,7.35,7.35,0,0,0-.77,1.91,8.18,8.18,0,0,0-.25,2,4.82,4.82,0,0,0,.48,2.35,1.84,1.84,0,0,0,1.75.84A2.8,2.8,0,0,0,96.25,32a5.11,5.11,0,0,0,1.27-1.45,7.49,7.49,0,0,0,.77-1.91,8.79,8.79,0,0,0,.25-2,4.79,4.79,0,0,0-.48-2.35A1.85,1.85,0,0,0,96.31,23.5Z" transform="translate(0 -0.3)"/><path class="cls-1" d="M27.52,19.8l.53-2.15-1.31-.32-.52,2.09-1-.25.52-2.1-1.3-.33-.54,2.15-.83-.2h0l-1.8-.45-.34,1.4s1,.22.94.23a.7.7,0,0,1,.61.76l-.61,2.44.14.05-.14,0L21,26.49a.47.47,0,0,1-.6.31s-.95-.23-.95-.23l-.65,1.49,1.7.42.93.24-.54,2.17,1.31.33.53-2.15,1,.27-.53,2.14,1.3.32.54-2.16c2.23.42,3.9.25,4.6-1.76a2.29,2.29,0,0,0-1.2-3.17,2.06,2.06,0,0,0,1.67-1.91h0C30.37,21.22,29.16,20.36,27.52,19.8ZM27.15,27c-.4,1.62-3.13.74-4,.52l.72-2.87C24.73,24.85,27.57,25.29,27.15,27Zm.4-4.21c-.36,1.48-2.64.73-3.37.55l.65-2.61C25.56,20.89,27.94,21.24,27.55,22.77Z" transform="translate(0 -0.3)"/><path class="cls-1" d="M46.73,23.53a5.25,5.25,0,0,0-1.09.15,2.65,2.65,0,0,0-1.22.63l-2,8.25.32.06.28,0,.36,0h.54a4.07,4.07,0,0,0,2-.51,5.27,5.27,0,0,0,1.61-1.37,7,7,0,0,0,1.07-1.94A6.67,6.67,0,0,0,49,26.6a4.44,4.44,0,0,0-.48-2.26A1.89,1.89,0,0,0,46.73,23.53Z" transform="translate(0 -0.3)"/></svg>