<svg xmlns="http://www.w3.org/2000/svg" width="200" height="40" viewBox="0 0 250 49"><defs><style>.cls-1{fill:#1e88e5;}</style></defs><path class="cls-1" d="M184.2,26.5a3.23,3.23,0,0,0-1.6-.3,2.93,2.93,0,0,0-1.6.7,2.87,2.87,0,0,0-1.1,1.9,2.78,2.78,0,0,0,.3,1.8,2,2,0,0,0,1.2.8,3.32,3.32,0,0,0,2.4-.3,3.18,3.18,0,0,0,1.5-3.2A1.77,1.77,0,0,0,184.2,26.5Z"/><path class="cls-1" d="M212.2,21.5a9.7,9.7,0,0,0-1.7-.1c-.4,0-.6.2-.6.5-.2,1.3-.4,2.5-.6,3.8a12.29,12.29,0,0,0,2.7-.2,1.77,1.77,0,0,0,1.1-.7,3,3,0,0,0,.5-1.5,2.08,2.08,0,0,0-.3-1.3A1.61,1.61,0,0,0,212.2,21.5Z"/><path class="cls-1" d="M171.6,21.4a6.8,6.8,0,0,0-2-.2c-.1.2-.3.2-.5.3a.76.76,0,0,0-.2.4c-.2,1.2-.4,2.5-.6,3.7h.9a4.49,4.49,0,0,0,2.3-.4,2.07,2.07,0,0,0,1-1.4,2.21,2.21,0,0,0,0-1.6A1.76,1.76,0,0,0,171.6,21.4Z"/><path class="cls-1" d="M224.9,26.5a2.09,2.09,0,0,0-1.4-.3,3.15,3.15,0,0,0-2.3,1.4,3.72,3.72,0,0,0-.5,2.3,1.6,1.6,0,0,0,.9,1.3,3.4,3.4,0,0,0,2,.3,3.23,3.23,0,0,0,2-1.4,3.1,3.1,0,0,0,.4-2.3A2.07,2.07,0,0,0,224.9,26.5Z"/><path class="cls-1" d="M54,25c-1.52,0-2.92,2-2.92,4.6,0,1.34.49,1.93,1.27,1.93a2.7,2.7,0,0,0,2.33-1.62L55.46,26A1.7,1.7,0,0,0,54,25Z"/><path class="cls-1" d="M73.54,24.81c-1,0-2.1.83-2.6,2.43h4a3.73,3.73,0,0,0,.1-.81C75,25.55,74.64,24.81,73.54,24.81Z"/><path class="cls-1" d="M16.42,21.76h-.55L14,31.26h.91c2.76,0,4.86-1.91,4.86-6.1C19.75,22.79,18.44,21.76,16.42,21.76Z"/><path class="cls-1" d="M29.84,24.92c-1.47,0-2.74,1.92-2.74,4.47,0,1.33.51,2.14,1.52,2.14,1.47,0,2.74-1.92,2.74-4.47C31.36,25.73,30.85,24.92,29.84,24.92Z"/><path class="cls-1" d="M243.4,0H6.6A6.66,6.66,0,0,0,0,6.6V42.4A6.66,6.66,0,0,0,6.6,49H243.4a6.59,6.59,0,0,0,6.6-6.6V6.6A6.59,6.59,0,0,0,243.4,0ZM15,33.68H10.48l2.87-14.34H16.5c4,0,6.34,1.85,6.34,5.63C22.84,30.63,19.55,33.68,15,33.68ZM28.29,34c-2.55,0-4.24-1.79-4.24-4.5,0-4.21,3.11-6.95,6.12-6.95,2.55,0,4.24,1.79,4.24,4.5C34.41,31.21,31.3,34,28.29,34Zm17.88-7.09L44.8,33.68h-3l1.29-6.44a5,5,0,0,0,.18-1,1,1,0,0,0-1.11-1.12c-.68,0-1.35.45-2.29,1.42l-1.41,7.19h-3l2.15-10.91H40l0,1.46h.08a5.84,5.84,0,0,1,3.68-1.73c1.8,0,2.58,1,2.58,2.81A7.81,7.81,0,0,1,46.17,26.86Zm10.74,6.82H54.46l0-1.42h0A5.11,5.11,0,0,1,51,34c-1.92,0-3.08-1.43-3.08-4,0-4.15,2.81-7.44,5.83-7.44a2.67,2.67,0,0,1,2.37,1.44h.05l.47-1.17H59.1ZM65,31.6a2,2,0,0,0,.89-.25l.54,2.11a7,7,0,0,1-2.56.49c-2.2,0-3.09-1.22-3.09-2.89A7.88,7.88,0,0,1,61,29.69l.95-4.57H60.45l.45-2.23,1.61-.12.92-2.86H66l-.54,2.86h2.47l-.46,2.35H64.88l-1,4.68a4.72,4.72,0,0,0-.05.73C63.87,31.25,64.22,31.6,65,31.6Zm11.91-2.52H70.7a2.24,2.24,0,0,0,2.46,2.59,3.8,3.8,0,0,0,2-.77l1.07,1.9A6.81,6.81,0,0,1,72.31,34c-2.63,0-4.46-1.75-4.46-4.68,0-4,3.16-6.77,6.06-6.77,2.61,0,3.56,1.83,3.56,4.1A6.79,6.79,0,0,1,76.92,29.08Zm14.9,4.6.09-6.87c0-.91.1-2.24.19-3.34H92c-.39,1.08-.86,2.23-1.3,3.34L87.9,33.68H84.17l.5-14.34h3.09l-.48,6.88c-.13,1.51-.25,3.08-.44,4.61h.09c.6-1.53,1.3-3.12,1.87-4.61l3-6.88h2.55l0,6.88c0,1.48-.09,3.06-.15,4.61h.09c.51-1.55,1.1-3.12,1.59-4.61l2.42-6.88h2.88L95.63,33.68Zm11.44,0h-3l2.19-10.91h3Zm1.26-12.55a1.48,1.48,0,0,1-1.63-1.45,1.84,1.84,0,0,1,1.88-1.78,1.51,1.51,0,0,1,1.63,1.45A1.8,1.8,0,0,1,104.52,21.13Zm6.85,10.47a2,2,0,0,0,.88-.25l.55,2.11a7.05,7.05,0,0,1-2.56.49c-2.21,0-3.1-1.22-3.1-2.89a7.88,7.88,0,0,1,.16-1.37l1-4.57H106.8l.45-2.23,1.61-.12.92-2.86h2.52l-.54,2.86h2.47l-.46,2.35h-2.54l-1,4.68a3.74,3.74,0,0,0,0,.73C110.23,31.25,110.58,31.6,111.37,31.6Zm13.51-4.74-1.36,6.82h-3l1.29-6.44a5.62,5.62,0,0,0,.17-1,1,1,0,0,0-1.11-1.12c-.67,0-1.34.45-2.29,1.42l-1.4,7.19h-3l3.09-15.41h3l-.83,4L119,24.05H119a5.29,5.29,0,0,1,3.43-1.55c1.81,0,2.59,1,2.59,2.81A6.6,6.6,0,0,1,124.88,26.86Zm8.82,7.44a1.7,1.7,0,0,0,.1-.7v-.2l1.1-7.1,1.9-12.1V14a.6.6,0,0,1,.1-.4c.1-.1.2-.1.3-.2l8.8-.1a8.49,8.49,0,0,1,3.8.9,3.69,3.69,0,0,1,1.8,2.1,5.66,5.66,0,0,1,.1,2.6,8.33,8.33,0,0,1-.4,1.5,7.51,7.51,0,0,1-2.2,3.6,7.85,7.85,0,0,1-4.1,1.7,17.7,17.7,0,0,1-2.3.1H141a1.27,1.27,0,0,0-.6.1,1.55,1.55,0,0,0-1.1.8l-.1.1V27c-.1.3-.1.5-.2.8-.2,1-.3,2-.5,3-.2,1.2-.4,2.3-.6,3.5Zm20.7-10a7.78,7.78,0,0,1-1.9,4.1,5.33,5.33,0,0,1-2.3,1.6,11.41,11.41,0,0,1-4.1.7,2,2,0,0,0-.8.1,1.56,1.56,0,0,0-.6.8c-.3,1.6-.5,3.1-.8,4.7,0,.2-.1.5-.1.7a1,1,0,0,1-.9.7H139a.71.71,0,0,1-.6-.3.64.64,0,0,1,0-.6c.1-.6.2-1.3.3-1.9a.76.76,0,0,1,.1-.4c.3-2.3.7-4.6,1.1-6.8a2.54,2.54,0,0,1,.2-.7,1.79,1.79,0,0,1,.7-.5h.9c1.2,0,2.4,0,3.6-.1a8.59,8.59,0,0,0,4.5-1.9,8,8,0,0,0,2.4-3.9c.1-.5.2-1,.3-1.6a3.89,3.89,0,0,1,1.8,2A6.17,6.17,0,0,1,154.4,24.3Zm17.5,4.6c-1.1.1-2.2.1-3.3.1a.55.55,0,0,0-.6.4,1.42,1.42,0,0,0-.2.6l-.6,3.6a.85.85,0,0,1-.8.7h-2.8a.47.47,0,0,1-.5-.5v-.1c.8-4.9,1.5-9.8,2.3-14.6a.87.87,0,0,1,.6-.8h5.2a8.55,8.55,0,0,1,3.2.4,3.52,3.52,0,0,1,2,1.4,4.46,4.46,0,0,1,.6,2.8,10.15,10.15,0,0,1-.6,2.5,6,6,0,0,1-1.4,2.1A7.27,7.27,0,0,1,171.9,28.9Zm17.6-4.8c-.5,3.1-1,6.2-1.5,9.4a.85.85,0,0,1-.8.7h-2.5a.55.55,0,0,1-.5-.3v-.4c0-.2.1-.4.1-.6a5.23,5.23,0,0,1-5,1.4,3.89,3.89,0,0,1-3.2-3.4,7,7,0,0,1,.2-3.2,7.09,7.09,0,0,1,3-3.6,5.29,5.29,0,0,1,3.2-.8,5.42,5.42,0,0,1,2.5.6,2.7,2.7,0,0,1,.7.8,2.2,2.2,0,0,0,.1-.8.66.66,0,0,1,.5-.4H189a.47.47,0,0,1,.5.5Zm4.6,13.7h-2.7c-.2,0-.3,0-.4-.1a.62.62,0,0,1-.1-.7l2.8-3.9v-.2l-3-8.8c.1-.1.2-.3.3-.4a.76.76,0,0,1,.5-.2h2.6a1.42,1.42,0,0,1,.6.2l.3.6,1.5,5.1c1.2-1.7,2.3-3.5,3.5-5.2.1-.2.3-.4.4-.6a1.42,1.42,0,0,1,.6-.2h2.7c.3,0,.5.3.4.5a.37.37,0,0,1-.1.3l-9.2,13.2A.84.84,0,0,1,194.1,37.8Zm21.2-9.9a6.3,6.3,0,0,1-2.7,1c-1.1.1-2.2.1-3.3.1a.68.68,0,0,0-.6.4c-.1.2-.1.4-.2.6l-.6,3.8a.54.54,0,0,1-.5.5h-3a.47.47,0,0,1-.5-.5v-.1c.8-4.9,1.5-9.8,2.3-14.6a1,1,0,0,1,.7-.8h5.5a8.28,8.28,0,0,1,3.1.4,4,4,0,0,1,1.9,1.5,4,4,0,0,1,.5,2.8,7.54,7.54,0,0,1-.9,2.9A5.51,5.51,0,0,1,215.3,27.9Zm15.2-3.7L229,33.5a.77.77,0,0,1-.8.7h-2.5a.46.46,0,0,1-.5-.4v-.1c0-.3.1-.5.1-.8a5.85,5.85,0,0,1-2.4,1.4,6.15,6.15,0,0,1-2.7,0A4.47,4.47,0,0,1,218,33a5.09,5.09,0,0,1-1-3.2,6.6,6.6,0,0,1,1.9-4.6,6.26,6.26,0,0,1,2.5-1.6,5.66,5.66,0,0,1,2.9-.2,6.36,6.36,0,0,1,1.8.6c.2.2.5.4.6.7,0-.3.1-.5.1-.8s.3-.4.5-.3H230a.47.47,0,0,1,.5.5Zm6.4-5.3c-.8,4.9-1.5,9.8-2.3,14.7a.85.85,0,0,1-.8.7h-2.4a.47.47,0,0,1-.5-.5v-.1c.8-5,1.6-9.9,2.3-14.9a.66.66,0,0,1,.4-.5h2.8a.47.47,0,0,1,.5.5Z"/></svg>