<svg xmlns="http://www.w3.org/2000/svg" width="200" height="40" viewBox="0 0 250 49"><defs><style>.cls-1{fill:#00a1e9;}</style></defs><path class="cls-1" d="M42.67,24.1H38.91v.36q0,1-.06,2.1h3.82Z" transform="translate(0 -0.3)"/><rect class="cls-1" x="38.91" y="19.26" width="3.76" height="2.32"/><rect class="cls-1" x="45.07" y="23.8" width="4.22" height="2.46"/><polygon class="cls-1" points="136.15 35.6 138.15 35.6 137.15 32.7 136.15 35.6"/><path class="cls-1" d="M128.55,32.1h-1.4v2.4h1.4a1.2,1.2,0,0,0,0-2.4Z" transform="translate(0 -0.3)"/><polygon class="cls-1" points="22.89 25.1 25.35 25.1 25.35 24.84 25.35 23.12 22.89 23.12 22.89 25.1"/><rect class="cls-1" x="168.45" y="20.48" width="5.38" height="1.02"/><rect class="cls-1" x="45.07" y="19.26" width="4.22" height="2.32"/><rect class="cls-1" x="209.37" y="18.2" width="4.46" height="1.84"/><rect class="cls-1" x="168.45" y="17.94" width="5.38" height="1"/><rect class="cls-1" x="189.43" y="21.84" width="2.9" height="3.98"/><polygon class="cls-1" points="30.19 23.12 27.71 23.12 27.71 24.86 27.71 25.1 30.19 25.1 30.19 23.12"/><polygon class="cls-1" points="101.95 35.6 103.95 35.6 102.95 32.7 101.95 35.6"/><path class="cls-1" d="M228.71,21.06l1.12-.32a14.18,14.18,0,0,1,1,2.78l-1.28.42a12.25,12.25,0,0,0-.84-2.62v2.86h2.22V20.34h-2.22Z" transform="translate(0 -0.3)"/><rect class="cls-1" x="229.61" y="30.78" width="4.18" height="0.96"/><rect class="cls-1" x="208.85" y="27.86" width="5.48" height="1.06"/><rect class="cls-1" x="229.61" y="28.02" width="4.18" height="1.04"/><path class="cls-1" d="M234.63,24.18V21.3l-.14.34c-.44,1.12-.76,1.88-.94,2.28l-1.12-.38v.64Z" transform="translate(0 -0.3)"/><path class="cls-1" d="M232.43,23.54a22.61,22.61,0,0,0,.8-2.88l1.4.38v-.7h-2.2Z" transform="translate(0 -0.3)"/><rect class="cls-1" x="208.85" y="24.9" width="5.48" height="1.04"/><path class="cls-1" d="M243.4.3H6.6A6.66,6.66,0,0,0,0,6.9V42.7a6.66,6.66,0,0,0,6.6,6.6H243.4a6.59,6.59,0,0,0,6.6-6.6V6.9A6.59,6.59,0,0,0,243.4.3ZM219.53,16.72h6.78V29.24h-1.7V18.6h-3.44V29.32h-1.64Zm-12.4-.1h9v5.62h-9Zm-40.86,0h9.84v6.9h-9.84ZM134.35,13.1h6V11.4h3.4v1.7H149a.88.88,0,0,1,.8.9v2.1h-3.2V14.3h-9v1.8h-3.2ZM31.91,34.6a18.12,18.12,0,0,1-6.84-2.1A10.18,10.18,0,0,1,21,34.64a10.43,10.43,0,0,0-1.48-2,9.24,9.24,0,0,0,3.64-1.54,11.83,11.83,0,0,1-2.46-3l1.94-.6a8.66,8.66,0,0,0,1.86,2.06,6.38,6.38,0,0,0,.74-2.28H20.75V21.48h4.6v-1.4h-5V18.24c-.4.83-.8,1.59-1.2,2.3V34.68H16.87V23.94a22.22,22.22,0,0,1-1.64,1.88c-.12-.31-.3-.71-.56-1.22a14,14,0,0,0-.7-1.22A18,18,0,0,0,16.69,20a21.48,21.48,0,0,0,2.12-4.12l2.2.72-.54,1.28h4.88V16.1h2.36v1.82H33v2.16h-5.3v1.4h4.76v5.84H27.59a9.43,9.43,0,0,1-1.1,3.48,19.94,19.94,0,0,0,6.84,1.68A8.08,8.08,0,0,0,31.91,34.6Zm19.74-2.78a3.7,3.7,0,0,1-.24,1.49,1.55,1.55,0,0,1-.84.79,8.13,8.13,0,0,1-3.18.42h-.66A7.48,7.48,0,0,0,46,32.24c.54,0,1.2,0,2,0h.82c.35,0,.52-.16.52-.48v-3H45.07v5.58h-2.4V28.8H38.59a11.18,11.18,0,0,1-2.52,5.94,7.47,7.47,0,0,0-.88-.82,5.46,5.46,0,0,0-1-.72,8.7,8.7,0,0,0,2-4.24,23.08,23.08,0,0,0,.36-4.52V17.3h15.1Zm41.1,3.78a5,5,0,0,1-5,5H66.35a5,5,0,0,1-5-5V14.4a5,5,0,0,1,5-5h21.4a4.81,4.81,0,0,1,4.9,5V30.6a37.38,37.38,0,0,1-5.5-1.6c-1.2-.4-2.9-1-4.8-1.7A27.52,27.52,0,0,0,85,20.7h-6.2V18.5h7.6V17.3h-7.6V13.6h-3.1a.49.49,0,0,0-.5.5v3.3h-7.7v1.2h7.7v2.2h-6.3V22h12.3a27.72,27.72,0,0,1-1.8,4.3c-4-1.3-8.2-2.4-10.9-1.7A5.75,5.75,0,0,0,65,26.5c-3,3.6-.9,9,5.4,9,3.8,0,7.3-2,10.1-5.4,4.1,1.9,12.2,5.3,12.3,5.3Zm-15-6.9c-2.2,2.9-5.1,4.7-7.9,4.7-4.9,0-6.3-3.8-3.9-5.9a6.76,6.76,0,0,1,3-1.2h.8C72.35,26.3,74.85,27.3,77.75,28.7Zm26.9,9.5-.5-1.4h-2.6l-.5,1.4h-1.3l2.6-7.1h1l2.6,7.1ZM97.85,29V27.5a22,22,0,0,0,6.5-2.9,16.6,16.6,0,0,1-4.6-4.9h2.8a14.7,14.7,0,0,0,3.5,3.5,10.78,10.78,0,0,0,3.5-4.8H98.85V17.2h5.4v-2h-6.4V14h6.4V12.1a.65.65,0,0,1,.6-.6h2.9V14h6.4v1.2h-6.4v2h5.6a13.33,13.33,0,0,1-5.3,7.3,31,31,0,0,0,6.3,3V29a29.31,29.31,0,0,1-8.2-3.2A29.31,29.31,0,0,1,97.85,29Zm16.7,9.2h-4.3V31.1h1.3v6.1h3Zm6.1,0h-1.3V31.1h1.3Zm-1.6-21.8h1V28.6h-2.7V19.4h-2.6l3.3-7.8h3.1Zm3.1,1.2h2.4a.68.68,0,0,1,.6.4l1.7,5.4h-2.8Zm6.4,17.9h-1.5v2.7h-1.3V31.1h2.8a2.21,2.21,0,1,1,0,4.4Zm3.8-19.6h-1.2V27.2a1.11,1.11,0,0,1-1.1,1.1h-3.7V27.1h1.5a.46.46,0,0,0,.5-.4V16h-7.1V14.8h7.1v-3h2.9l-.1,2.9h1.2ZM139,38.2l-.5-1.4h-2.6l-.5,1.4h-1.3l2.6-7.1h1l2.6,7.1Zm7.8-2.9v2.9h-1.3V35.3l-2.2-4.2h1.4l1.4,3,1.4-3h1.4Zm-12.3-7.1V27h6.2V22h-6.2V20.8h6.2V18.4h-6.2V17.2h15.4v1.2h-6.2v2.4h6.2V22h-6.2v5h3.1l-.8-2.6h2.7a.66.66,0,0,1,.5.4l1.1,3.4Zm28.68,3.66a4.35,4.35,0,0,1-.16,1.3,1.41,1.41,0,0,1-.62.74,4.64,4.64,0,0,1-2.42.46h-.34a6.64,6.64,0,0,0-.62-2.18l1,0,.64,0a.3.3,0,0,0,.34-.34v-4l-1,.3-.8.22-.54-2.3,1.5-.36.88-.22V21.94h-2.16v-2.2H161V16h2.16v3.78h2v2.2h-2v3l1.8-.48.32,2.14-2.12.64Zm14.12,1.42a6.7,6.7,0,0,0-.24,1.08h-3.48a9.2,9.2,0,0,1-3.48-.54,5.25,5.25,0,0,1-2.52-2.36,9.1,9.1,0,0,1-2.1,3.14,8.79,8.79,0,0,0-1.74-1.42q2.3-1.82,2.78-6.26l2.16.26a19.45,19.45,0,0,1-.38,2A4.59,4.59,0,0,0,170,31.54V26.32h-4.7V24.4h11.82v1.92h-4.88v1.76h3.82v1.86h-3.82v2.3c.46,0,.93.06,1.4.06,2.1,0,3.44,0,4,0A4.37,4.37,0,0,0,177.25,33.28Zm6.06,1.34H181V24.48c-.35.45-.77.95-1.26,1.48-.12-.32-.31-.73-.56-1.24a10.12,10.12,0,0,0-.72-1.24A18.93,18.93,0,0,0,181,20.14,22.37,22.37,0,0,0,183,16l2.22.7a36.37,36.37,0,0,1-1.9,4.16ZM188,32.48a18.31,18.31,0,0,1-2.14,2.1,11.12,11.12,0,0,0-1.86-1.5,13,13,0,0,0,2-1.74,11.86,11.86,0,0,0,1.59-2.08l2.22.68A17.53,17.53,0,0,1,188,32.48Zm7.28,2.14a17,17,0,0,0-1.42-2.13A25.31,25.31,0,0,0,192,30.3l1.9-1.06a22.45,22.45,0,0,1,3.4,4.12Zm2.1-6.18h-13V26.12h2.68v-4h-2.18V19.86h2.18V16.12h2.32v3.74h2.9V16.1h2.32v3.76h2.6v2.28h-2.6v4h2.76Zm6.38-1.24v4.86a3.72,3.72,0,0,1-.2,1.36,1.48,1.48,0,0,1-.7.74,6.35,6.35,0,0,1-2.7.42h-.32a7.46,7.46,0,0,0-.68-2.16c.53,0,1.16,0,1.88,0a.53.53,0,0,0,.3-.1.43.43,0,0,0,.08-.3V27.82l-2.1.54-.62-2.28c.62-.13,1.53-.34,2.72-.62V22H199v-2.2h2.46V16h2.34v3.78h2.32V22h-2.32V24.9l2.06-.52.3,2.2Zm13,5a3.52,3.52,0,0,1-.2,1.32,1.64,1.64,0,0,1-.76.76,8.53,8.53,0,0,1-3.12.38,9,9,0,0,0-.68-2.2c.52,0,1.17,0,2,0,.24,0,.36-.11.36-.34v-1h-5.48v3.5h-2.34V23.26h10.26ZM220,34.4a5.39,5.39,0,0,0-1.18-1.32,6.16,6.16,0,0,0,2.7-3.58,14.33,14.33,0,0,0,.48-4.08V19.54h1.72v5.9a15.62,15.62,0,0,1-.64,4.78A7.83,7.83,0,0,1,220,34.4Zm5.4-.48A20,20,0,0,0,223,30.44l1.34-1a19,19,0,0,1,2.44,3.34Zm10.48.52h-2.08v-.66h-4.18v.74h-2v-8h8.26Zm.7-8.54h-9.68V18.66h2a13.23,13.23,0,0,0-1.06-2.08l2-.62a12.54,12.54,0,0,1,1.28,2.32l-1,.38h2.48a17.84,17.84,0,0,0,1.44-2.78l2.26.7-.54.76-1,1.32h1.88Z" transform="translate(0 -0.3)"/></svg>